<svg width="44" height="29" viewBox="0 0 44 29" fill="none" xmlns="http://www.w3.org/2000/svg">
<path d="M11.9981 7.2974C17.1899 11.3207 21.0049 16.3492 23.1544 22.5963C23.7436 24.3056 24.0713 26.075 24.3629 27.8565C24.5223 28.8255 24.2246 29.0782 23.2837 28.9789C13.9943 27.9979 5.37524 21.4558 2.9672 12.2807C1.915 8.26637 1.49713 4.10761 0 0C9.4698 0.415274 18.2091 2.2479 24.6155 9.75594C28.7251 14.5707 29.666 20.1679 27.745 26.5715C25.7218 17.261 20.3165 10.9416 12.3168 6.68652C11.4539 6.06361 10.5551 5.53398 9.06996 5.49486C10.2514 6.22009 11.1233 6.75874 11.9981 7.2974Z" fill="#198447"/>
<path d="M37.4527 5.41358C34.6147 6.84899 31.9271 11.7962 31.4311 16.4876C30.0211 13.9749 29.9971 11.5615 30.8809 9.16309C32.3991 5.04345 35.694 2.79254 39.6082 1.30899C40.7686 0.869639 42.0042 0.622881 43.2067 0.282838C43.7148 0.138395 44.0845 0.0752007 43.9853 0.854593C43.7027 3.08745 43.8741 5.3534 43.4532 7.58324C42.4942 12.6538 39.3226 15.7292 34.6568 17.4927C33.5836 17.8989 33.298 17.5258 33.3371 16.4123C33.4633 13.0059 34.5666 9.96656 36.4937 7.19204C36.8514 6.68348 37.3384 6.23811 37.4527 5.41358Z" fill="#62B954"/>
</svg>
