<svg width="198" height="133" viewBox="0 0 198 133" fill="none" xmlns="http://www.w3.org/2000/svg">
<g clip-path="url(#clip0_5_905)">
<path d="M92.7922 0.0301098C87.6989 0.931585 75.1308 4.92061 77.7676 22.2139C77.9479 23.4009 79.0973 24.2122 80.2767 23.9943C85.5053 23.0102 98.3288 18.8334 95.2713 1.75794C95.0609 0.608557 93.9416 -0.172722 92.7922 0.0301098Z" fill="#316D36"/>
<path d="M10.1868 29.7113C9.39798 29.4934 8.57162 29.9667 8.35377 30.7555C7.39219 34.2412 6.13764 43.3686 17.8493 46.8994C18.6531 47.1398 19.5095 46.659 19.7274 45.8477C20.6664 42.2568 21.8834 32.904 10.1868 29.7113Z" fill="#316D36"/>
<path d="M92.5587 111.67C92.6038 111.227 92.6339 110.837 92.6489 110.506C92.6639 110.175 92.6865 109.905 92.709 109.702C92.709 109.507 92.7165 109.327 92.724 109.169C92.739 109.011 92.7616 108.801 92.8142 108.53H86.7442C86.8118 109.349 86.8644 110.175 86.902 111.002C86.9546 111.828 86.9696 112.594 86.9696 113.293V118.289H80.0808V113.293C80.0808 112.677 80.0808 111.986 80.0958 111.227C80.1109 110.461 80.1635 109.755 80.2611 109.101L80.3212 108.53H74.2588C74.3039 108.801 74.3189 109.011 74.3189 109.169C74.3189 109.327 74.3339 109.507 74.3565 109.71C74.3715 110.145 74.409 110.806 74.4466 111.67C74.4691 112.031 74.4917 112.347 74.4992 112.602C74.5142 112.872 74.5142 113.105 74.5142 113.293V127.814C74.5142 128.573 74.4992 129.347 74.4616 130.128C74.4316 130.917 74.3715 131.721 74.2813 132.54H80.2837C80.2611 132.277 80.2461 132.059 80.2311 131.909C80.216 131.751 80.216 131.586 80.216 131.405C80.1635 130.834 80.1259 130.203 80.1034 129.512C80.0808 128.828 80.0733 128.25 80.0733 127.784V121.527H86.9621V127.784C86.9621 128.475 86.9471 129.249 86.8945 130.098C86.8569 130.947 86.8118 131.766 86.7743 132.54H92.7691C92.6789 131.631 92.6113 130.812 92.5813 130.076C92.5437 129.347 92.5287 128.596 92.5287 127.807V112.624C92.5287 112.369 92.5362 112.054 92.5587 111.67Z" fill="#316D36"/>
<path d="M117.447 131.097C117.357 130.864 117.267 130.616 117.169 130.353C117.072 130.091 116.952 129.775 116.809 129.414C116.681 129.046 116.561 128.731 116.471 128.46C116.373 128.197 116.283 127.972 116.208 127.784L109.785 108.53H104.128L104.421 110.07L98.3737 127.807C98.2535 128.145 98.0657 128.678 97.8028 129.399C97.5924 129.925 97.4046 130.391 97.2318 130.804C97.0591 131.225 96.9163 131.608 96.7961 131.969L96.5332 132.54H100.635L100.763 131.969C100.853 131.608 100.943 131.225 101.048 130.804C101.153 130.384 101.251 129.993 101.341 129.61C101.439 129.234 101.544 128.881 101.642 128.558C101.747 128.243 101.829 127.98 101.897 127.777L102.385 126.342H109.462L109.943 127.777C110.01 127.965 110.093 128.22 110.183 128.558C110.273 128.904 110.371 129.294 110.476 129.722C110.589 130.158 110.694 130.616 110.799 131.105C110.904 131.593 111.009 132.066 111.115 132.532H118.071C117.943 132.239 117.823 131.984 117.725 131.758C117.628 131.555 117.53 131.323 117.447 131.097ZM103.392 123.202L106.059 114.728L108.575 123.202H103.392Z" fill="#316D36"/>
<path d="M131.338 129.377H127.536V113.293C127.536 113.173 127.544 112.97 127.551 112.722C127.566 112.467 127.574 112.114 127.604 111.67C127.657 110.761 127.694 110.108 127.717 109.71C127.717 109.537 127.724 109.372 127.732 109.206C127.739 109.049 127.754 108.823 127.784 108.53H121.782L121.812 109.101C121.857 109.747 121.895 110.438 121.932 111.145C121.962 111.858 121.977 112.572 121.977 113.293V127.814C121.977 127.927 121.977 128.107 121.962 128.37C121.947 128.633 121.94 128.979 121.91 129.407C121.887 130.015 121.88 130.504 121.88 130.887C121.88 131.255 121.857 131.608 121.812 131.946L121.752 132.547H136.393V129.121C135.417 129.227 134.538 129.302 133.749 129.332C132.968 129.362 132.164 129.377 131.338 129.377Z" fill="#316D36"/>
<path d="M153.86 109.289C153.882 109.522 153.905 109.755 153.912 109.995C153.927 110.22 153.927 110.476 153.942 110.739C153.957 111.002 153.965 111.31 153.995 111.67C154.01 112.068 154.033 112.414 154.048 112.707C154.063 112.993 154.063 113.188 154.063 113.293V125.087C154.063 126.109 153.942 126.875 153.717 127.394C153.386 128.1 152.883 128.641 152.2 129.039C151.516 129.429 150.675 129.617 149.69 129.617C148.631 129.617 147.767 129.422 147.099 129.016C146.43 128.618 145.979 128.017 145.739 127.213C145.581 126.68 145.499 125.914 145.499 124.915V113.255C145.499 112.407 145.514 111.64 145.551 110.942C145.589 110.243 145.641 109.432 145.709 108.53H139.646C139.662 108.846 139.692 109.109 139.707 109.334C139.729 109.559 139.744 109.777 139.759 110.003C139.774 110.228 139.782 110.468 139.789 110.716C139.804 110.972 139.819 111.287 139.842 111.67C139.887 112.114 139.909 112.467 139.909 112.73V125.298C139.909 126.47 140.105 127.521 140.495 128.453C140.886 129.384 141.449 130.173 142.178 130.834C142.914 131.488 143.801 131.991 144.845 132.344C145.897 132.69 147.069 132.87 148.383 132.87C151.313 132.87 153.522 132.232 155.017 130.962C156.519 129.685 157.263 127.807 157.263 125.328V113.293C157.263 112.857 157.278 112.279 157.315 111.58C157.353 110.874 157.398 110.251 157.436 109.702C157.451 109.529 157.473 109.364 157.481 109.199C157.496 109.041 157.511 108.816 157.533 108.523H153.8C153.807 108.808 153.83 109.064 153.86 109.289Z" fill="#316D36"/>
<path d="M177.56 108.538H160.815V112.151C161.664 112.031 162.416 111.941 163.069 111.888C163.723 111.836 164.271 111.806 164.714 111.806H166.405V127.792C166.405 127.897 166.397 128.107 166.39 128.408C166.382 128.708 166.367 129.046 166.337 129.415C166.292 129.813 166.269 130.181 166.254 130.504C166.239 130.827 166.232 131.135 166.202 131.413C166.187 131.601 166.172 131.766 166.172 131.916C166.172 132.066 166.149 132.277 166.104 132.547H172.219C172.174 132.044 172.129 131.563 172.099 131.135C172.069 130.699 172.031 130.128 171.986 129.415C171.964 129.046 171.941 128.708 171.934 128.408C171.919 128.107 171.919 127.897 171.919 127.792V111.806H173.661C174.097 111.806 174.638 111.836 175.299 111.888C175.953 111.941 176.704 112.031 177.545 112.151V108.538H177.56Z" fill="#316D36"/>
<path d="M196.928 131.773C196.823 131.548 196.733 131.323 196.642 131.097C196.552 130.864 196.462 130.616 196.365 130.353C196.267 130.091 196.147 129.775 196.004 129.414C195.876 129.046 195.756 128.731 195.666 128.46C195.568 128.197 195.478 127.972 195.403 127.784L188.98 108.53H183.323L183.616 110.07L177.569 127.807C177.449 128.145 177.261 128.678 176.998 129.399C176.787 129.925 176.6 130.391 176.427 130.804C176.247 131.225 176.104 131.608 175.984 131.969L175.721 132.54H179.822L179.95 131.969C180.04 131.608 180.13 131.225 180.236 130.804C180.341 130.384 180.438 129.993 180.536 129.61C180.626 129.234 180.731 128.881 180.829 128.558C180.934 128.243 181.017 127.98 181.084 127.777L181.573 126.342H188.649L189.138 127.777C189.198 127.965 189.28 128.22 189.371 128.558C189.461 128.904 189.558 129.294 189.671 129.722C189.776 130.158 189.881 130.616 189.987 131.105C190.092 131.593 190.197 132.066 190.302 132.532H197.258C197.146 132.254 197.033 131.999 196.928 131.773ZM182.594 123.202L185.261 114.728L187.778 123.202H182.594Z" fill="#316D36"/>
<path d="M105.397 99.9437H109.003V69.5639L105.397 66.0256V99.9437Z" fill="#1D1D1D"/>
<path d="M122.473 98.4787C122.135 98.644 121.782 98.7341 121.406 98.7341C120.527 98.7341 119.851 98.3736 119.37 97.6599C118.889 96.9387 118.649 95.9396 118.649 94.6399C118.649 93.731 118.739 92.9947 118.927 92.4388C119.115 91.8829 119.43 91.4397 119.858 91.1092C120.076 90.9439 120.302 90.8237 120.565 90.7486C120.82 90.6659 121.075 90.6284 121.346 90.6284C122.262 90.6284 123.059 91.1542 123.72 92.2135V89.7269C123.517 89.6518 123.322 89.5842 123.149 89.5316C122.968 89.479 122.788 89.4339 122.615 89.4039C122.443 89.3663 122.27 89.3438 122.082 89.3287C121.902 89.3137 121.706 89.3137 121.496 89.3137C120.685 89.3137 119.956 89.4489 119.295 89.7119C118.626 89.9748 118.063 90.3504 117.59 90.8387C117.124 91.327 116.756 91.9055 116.493 92.5891C116.23 93.2652 116.095 94.0239 116.095 94.8428C116.095 95.6241 116.215 96.3377 116.448 96.9838C116.673 97.6298 117.004 98.1857 117.417 98.659C117.838 99.1248 118.333 99.4854 118.919 99.7483C119.498 100.011 120.136 100.131 120.835 100.131C121.511 100.131 122.127 100.019 122.683 99.7934C123.246 99.568 123.81 99.1924 124.381 98.6816L123.584 97.6899C123.179 98.0355 122.803 98.3059 122.473 98.4787Z" fill="#1D1D1D"/>
<path d="M129.925 86.8045L130.827 88.2543H132.089C131.961 88.1116 131.856 87.9839 131.758 87.8862C131.668 87.7886 131.593 87.6909 131.518 87.5933C131.443 87.5031 131.375 87.4055 131.308 87.3228C131.248 87.2327 131.18 87.135 131.105 87.0298C130.985 86.8646 130.887 86.7143 130.804 86.5866C130.722 86.4589 130.609 86.2636 130.466 86.0232H129.37C129.287 86.1434 129.219 86.2486 129.174 86.3387C129.122 86.4289 129.069 86.5115 129.016 86.5866C128.964 86.6542 128.911 86.7293 128.859 86.797C128.806 86.8646 128.761 86.9472 128.701 87.0298C128.618 87.135 128.543 87.2327 128.483 87.3228C128.423 87.413 128.355 87.5031 128.28 87.5933C128.205 87.6834 128.122 87.7811 128.04 87.8862C127.95 87.9839 127.852 88.1116 127.717 88.2543H129.001L129.925 86.8045Z" fill="#1D1D1D"/>
<path d="M134.342 99.32C134.305 99.2223 134.259 99.1097 134.222 98.9895C134.177 98.8768 134.132 98.734 134.064 98.5838C134.012 98.426 133.959 98.2833 133.914 98.1706C133.869 98.0504 133.831 97.9528 133.794 97.8776L130.984 89.4639H128.513L128.64 90.14L125.996 97.8927C125.943 98.0429 125.861 98.2758 125.74 98.5913C125.65 98.8167 125.568 99.027 125.493 99.2073C125.417 99.3876 125.35 99.5529 125.305 99.7106L125.185 99.9585H126.973L127.033 99.7106C127.07 99.5529 127.115 99.3801 127.153 99.2073C127.198 99.0195 127.243 98.8467 127.28 98.6815C127.326 98.5162 127.363 98.3584 127.416 98.2232C127.461 98.0805 127.498 97.9678 127.521 97.8776L127.739 97.2466H130.826L131.044 97.8776C131.067 97.9603 131.104 98.073 131.149 98.2232C131.187 98.3735 131.232 98.5387 131.277 98.7265C131.33 98.9143 131.367 99.1172 131.42 99.335C131.465 99.5454 131.51 99.7557 131.555 99.9585H134.59C134.537 99.8308 134.485 99.7182 134.44 99.6205C134.417 99.5228 134.38 99.4252 134.342 99.32ZM128.205 95.8643L129.369 92.1683L130.466 95.8643H128.205Z" fill="#1D1D1D"/>
<path d="M142.171 89.6668C142.043 89.9147 141.93 90.14 141.833 90.3504C141.735 90.5607 141.652 90.711 141.6 90.8237L141.202 91.5373L139.902 94.0014L138.655 91.5373L138.279 90.8237C138.264 90.7786 138.197 90.6584 138.099 90.4631C137.994 90.2227 137.919 90.0649 137.874 89.9748C137.821 89.8846 137.783 89.787 137.746 89.6668L137.648 89.4564H134.711C134.786 89.5841 134.846 89.6818 134.884 89.7494C134.929 89.817 134.966 89.8921 135.011 89.9673C135.041 90.0199 135.102 90.11 135.199 90.2602C135.289 90.4105 135.41 90.5983 135.545 90.8462C135.657 91.034 135.748 91.1993 135.823 91.312C135.898 91.4322 135.943 91.5073 135.965 91.5373L138.144 95.6165V97.8702C138.144 97.9904 138.144 98.1331 138.137 98.3059C138.129 98.4787 138.122 98.659 138.114 98.8468C138.106 99.0346 138.099 99.2299 138.084 99.4177C138.069 99.6055 138.054 99.7858 138.046 99.9436H140.683L140.668 99.6957C140.653 99.4177 140.623 99.1022 140.608 98.7642C140.586 98.4261 140.578 98.1256 140.578 97.8627V95.5639L142.847 91.5298L143.267 90.8162L143.696 90.1175C143.808 89.9297 143.951 89.7043 144.116 89.4414H142.268L142.171 89.6668Z" fill="#1D1D1D"/>
<path d="M158.84 99.4628C158.764 99.3426 158.682 99.2149 158.577 99.0722C158.479 98.9369 158.374 98.7717 158.254 98.5838C158.148 98.4261 158.058 98.2834 157.983 98.1707C157.908 98.0505 157.848 97.9528 157.803 97.8777L155.489 94.0089L157.202 91.5674C157.292 91.4472 157.367 91.327 157.45 91.2218C157.532 91.1166 157.608 90.9964 157.698 90.8838C157.788 90.7636 157.886 90.6358 157.983 90.4931C158.088 90.3579 158.209 90.1851 158.351 89.9823L158.712 89.4714H156.706C156.623 89.5991 156.571 89.6968 156.533 89.7644C156.503 89.832 156.466 89.9071 156.428 89.9823C156.368 90.0724 156.293 90.2001 156.195 90.3579C156.105 90.5232 156 90.6884 155.887 90.8612L155.444 91.5749L154.685 92.7768L154.002 91.5749C153.814 91.2368 153.641 90.9363 153.513 90.6809C153.386 90.4255 153.265 90.2001 153.153 90.0048C153.108 89.9297 153.07 89.8546 153.04 89.7794C153.01 89.7043 152.972 89.6067 152.92 89.4789H149.862L150.028 89.7269C150.103 89.8471 150.215 90.0198 150.358 90.2377C150.501 90.4631 150.629 90.6734 150.756 90.8687C150.982 91.1993 151.132 91.4397 151.215 91.5824L153.145 94.8202L151.004 97.8927C150.576 98.5238 150.058 99.2149 149.449 99.9736H151.463C151.62 99.7107 151.755 99.4703 151.891 99.2449C152.026 99.0196 152.154 98.8092 152.289 98.6064L152.77 97.8927L153.964 96.0747L155.008 97.9077L155.421 98.6064C155.504 98.7341 155.609 98.9294 155.737 99.1923C155.872 99.4553 156.007 99.7182 156.15 99.9736H159.185C159.095 99.8534 159.035 99.7633 158.99 99.6957C158.945 99.6055 158.892 99.5379 158.84 99.4628Z" fill="#1D1D1D"/>
<path d="M168.441 99.32C168.403 99.2223 168.366 99.1097 168.32 98.9895C168.275 98.8768 168.223 98.734 168.163 98.5838C168.103 98.426 168.05 98.2833 168.005 98.1706C167.96 98.0504 167.922 97.9528 167.892 97.8776L165.083 89.4639H162.611L162.731 90.14L160.087 97.8927C160.034 98.0429 159.952 98.2758 159.839 98.5913C159.749 98.8167 159.666 99.027 159.591 99.2073C159.516 99.3876 159.448 99.5529 159.403 99.7106L159.283 99.9585H161.071L161.131 99.7106C161.169 99.5529 161.206 99.3801 161.251 99.2073C161.296 99.0195 161.334 98.8467 161.379 98.6815C161.424 98.5162 161.462 98.3584 161.507 98.2232C161.552 98.0805 161.589 97.9678 161.62 97.8776L161.83 97.2466H164.925L165.143 97.8776C165.165 97.9603 165.203 98.073 165.248 98.2232C165.286 98.3735 165.331 98.5387 165.376 98.7265C165.421 98.9143 165.466 99.1172 165.511 99.335C165.556 99.5454 165.601 99.7557 165.654 99.9585H168.689C168.636 99.8308 168.583 99.7182 168.531 99.6205C168.516 99.5228 168.471 99.4252 168.441 99.32ZM162.303 95.8643L163.468 92.1683L164.564 95.8643H162.303Z" fill="#1D1D1D"/>
<path d="M176.689 90.5383C176.712 90.8914 176.72 91.2144 176.72 91.5299V96.4054L172.385 89.4565H170.334C170.387 90.2003 170.417 90.8989 170.417 91.5374V98.1633C170.417 98.2835 170.417 98.4262 170.402 98.584C170.387 98.9446 170.372 99.23 170.357 99.4404C170.349 99.523 170.342 99.5981 170.342 99.6658C170.342 99.7334 170.327 99.8235 170.312 99.9587H171.942C171.912 99.6282 171.889 99.2676 171.867 98.8845C171.852 98.4938 171.844 98.1633 171.844 97.8778V92.9047L176.269 99.9587H178.245L178.214 99.7108C178.177 99.4329 178.162 99.1399 178.162 98.8244V91.267C178.162 91.1693 178.169 91.0191 178.177 90.8313C178.192 90.5533 178.199 90.3355 178.214 90.1852C178.229 90.035 178.237 89.8847 178.252 89.727L178.267 89.4641H176.614C176.652 89.8322 176.674 90.1852 176.689 90.5383Z" fill="#1D1D1D"/>
<path d="M188.747 97.8852V91.2518C188.747 91.1391 188.754 90.9964 188.762 90.8311C188.777 90.6433 188.792 90.4705 188.807 90.3278C188.814 90.185 188.822 90.0649 188.829 89.9747C188.829 89.8846 188.829 89.8169 188.837 89.7493C188.844 89.6817 188.852 89.5841 188.874 89.4639H186.222C186.253 89.8245 186.275 90.185 186.298 90.5456C186.313 90.9062 186.328 91.2443 186.328 91.5448V93.7309H183.308V91.5448C183.308 91.2818 183.315 90.9738 183.323 90.6358C183.323 90.3052 183.345 89.9972 183.39 89.7118L183.42 89.4639H180.769C180.784 89.5841 180.799 89.6742 180.799 89.7418C180.799 89.8169 180.806 89.8921 180.814 89.9747C180.829 90.1625 180.836 90.4555 180.859 90.8311C180.874 90.9889 180.874 91.1241 180.881 91.2368C180.889 91.357 180.889 91.4621 180.889 91.5373V97.8852C180.889 98.2157 180.881 98.5537 180.874 98.8993C180.859 99.2449 180.829 99.598 180.791 99.9585H183.405C183.398 99.8384 183.39 99.7482 183.39 99.6806C183.383 99.613 183.383 99.5454 183.383 99.4627C183.36 99.2073 183.338 98.9294 183.33 98.6289C183.315 98.3359 183.315 98.0805 183.315 97.8776V95.1432H186.335V97.8776C186.335 98.1781 186.32 98.5162 186.305 98.8918C186.29 99.2599 186.268 99.6205 186.253 99.9585H188.867C188.822 99.5604 188.799 99.2073 188.777 98.8843C188.754 98.5613 188.747 98.2232 188.747 97.8852Z" fill="#1D1D1D"/>
<path d="M116.373 72.2157H120.219H121.714L118.814 69.4211L96.0372 47.2448L94.2868 45.5395L76.648 28.3664L74.199 25.985L69.2859 21.1997C64.1851 16.2942 55.9666 16.3768 50.9634 21.3725L22.5294 49.7314L20.6438 51.6095L2.90726 69.3009L1.81046 70.4052L0 72.2232H1.4048H5.1309H5.22105L11.0581 66.4012L12.1173 65.3419V65.3344L15.7232 61.7436L16.8876 60.5792L22.9576 54.5242L44.563 81.7488L32.3329 79.728C30.56 76.9484 26.6086 73.1021 19.2841 76.4601C18.6981 76.7306 18.4427 77.4518 18.7357 78.0377C20.0278 80.6295 24.1145 86.737 32.5433 82.6052C32.5883 82.5827 32.6259 82.5526 32.671 82.5301L47.8533 85.8956L60.0533 101.266L55.7788 124.028L45.8851 115.299C45.9377 115.269 45.9903 115.231 46.0354 115.194C47.9735 113.451 52.2706 108.432 46.6288 102.07C46.2457 101.641 45.5771 101.604 45.1489 101.979C43.4962 103.437 40.0706 107.321 42.8501 112.632L25.7822 97.5772L25.0009 100.026L33.2344 108.275C30.1018 107.013 25.6019 106.795 21.0945 112.136C20.6438 112.669 20.7264 113.481 21.2748 113.909C23.7013 115.817 30.4248 119.829 36.7201 111.971C36.7502 111.933 36.7727 111.888 36.8027 111.843L54.2012 129.279H20.0503C17.6764 129.279 15.7308 127.333 15.7308 124.96V66.2885L12.1248 69.8944V124.982C12.1248 129.339 15.6556 132.87 20.0503 132.87H61.0074V132.464H61.0374L65.9955 99.3802L73.906 92.4839L94.7751 97.149L95.7743 95.2935L77.0611 89.7344L91.5899 77.0611C94.5498 77.0762 101.544 76.1371 101.769 66.9346C101.784 66.3035 101.273 65.7701 100.65 65.7551C97.9378 65.68 91.1617 66.3937 90.3729 75.1305L81.0427 82.2972C82.0493 79.7881 82.0568 76.4752 78.8491 72.6139C78.4584 72.1406 77.7373 72.073 77.264 72.4711C75.1981 74.1839 70.5931 79.1571 75.9418 86.2186L66.9346 93.1375L70.9987 66.0556V66.0631L71.0438 66.1833L93.0548 49.5135L104.128 60.3012L105.39 61.5332L108.996 65.049L116.373 72.2157ZM91.1542 47.658L71.8025 60.7369L75.9719 32.8813L91.1542 47.658ZM47.2223 78.2556L46.4335 68.8802L55.0126 50.6329C58.1978 49.3783 65.6199 45.2616 61.7361 34.9998C61.4731 34.3011 60.6768 33.9481 59.9857 34.211C56.9057 35.3679 49.5136 39.3269 53.1796 49.8366C53.1946 49.8891 53.2246 49.9342 53.2472 49.9793L45.9377 62.9831L44.7282 48.6797L42.467 48.1463L43.1732 73.5754L24.9559 52.541L53.5777 23.9943C57.1611 20.4109 63.0582 20.3583 66.7092 23.8666L73.3801 30.3647L61.3229 94.5573L47.2223 78.2556Z" fill="#1D1D1D"/>
</g>
<defs>
<clipPath id="clip0_5_905">
<rect width="197.273" height="132.87" fill="white"/>
</clipPath>
</defs>
</svg>
